<?xml version="1.0" encoding="UTF-8" standalone="no"?>
<!-- Created with Inkscape (http://www.inkscape.org/) -->

<svg
   width="70"
   height="50"
   viewBox="0 0 18.520834 13.229167"
   version="1.1"
   id="svg14379"
   xmlns="http://www.w3.org/2000/svg"
   xmlns:svg="http://www.w3.org/2000/svg">
  <defs
     id="defs14376" />
  <g
     id="layer1">
    <path
       style="fill:none;stroke:#000000;stroke-width:0.79375;stroke-linecap:butt;stroke-linejoin:miter;stroke-miterlimit:4;stroke-dasharray:none;stroke-opacity:1"
       d="M 14.552084,3.0624237 H 3.9687501 c 0,0 -1.583459,-0.215743 -2.455266,0.889501 C -0.2592726,6.1993575 8.4625709,7.5504515 7.2165459,10.127474 6.44273,11.727876 3.1410894,11.723471 2.4386823,10.090466 1.982649,9.0302486 3.9687501,8.3540904 3.9687501,8.3540904 Z"
       id="path16385" />
    <path
       style="fill:none;stroke:#000000;stroke-width:0.79375;stroke-linecap:butt;stroke-linejoin:miter;stroke-miterlimit:4;stroke-dasharray:none;stroke-opacity:1"
       d="M 3.9687501,5.7082571 H 14.552085"
       id="path16385-5" />
    <path
       style="fill:none;stroke:#000000;stroke-width:0.79375;stroke-linecap:butt;stroke-linejoin:miter;stroke-miterlimit:4;stroke-dasharray:none;stroke-opacity:1"
       d="M 3.9687501,8.3540905 H 14.552083"
       id="path16385-6-5" />
    <path
       style="fill:none;stroke:#000000;stroke-width:0.79375;stroke-linecap:butt;stroke-linejoin:miter;stroke-miterlimit:4;stroke-dasharray:none;stroke-opacity:1"
       d="m 4.146238,3.082139 h 10.583334 c 0,0 1.583459,-0.215743 2.455266,0.889501 1.772757,2.2474328 -6.949087,3.5985268 -5.703062,6.175549 0.773816,1.600402 4.075457,1.595997 4.777864,-0.03701 0.456033,-1.0602174 -1.530068,-1.7363753 -1.530068,-1.7363753 z"
       id="path35278" />
  </g>
</svg>
